<?xml version="1.0" encoding="utf-8"?>
<!DOCTYPE svg PUBLIC "-//W3C//DTD SVG 1.1//EN" "http://www.w3.org/Graphics/SVG/1.1/DTD/svg11.dtd">
<svg version="1.1" id="Layer_1" xmlns="http://www.w3.org/2000/svg" xmlns:xlink="http://www.w3.org/1999/xlink" x="0px" y="0px"
	 width="36px" height="36px" viewBox="0.5 0 36 36" enable-background="new 0.5 0 36 36" xml:space="preserve">
<path d="M25.296,18.204c-0.439-0.438-1.152-0.438-1.592,0l-4.079,4.079V11c0-0.621-0.504-1.125-1.125-1.125S17.375,10.379,17.375,11
	v11.283l-4.08-4.079c-0.439-0.438-1.151-0.438-1.591,0c-0.439,0.439-0.439,1.152,0,1.592l6,6c0.22,0.22,0.507,0.329,0.795,0.329
	s0.576-0.109,0.796-0.329l6-6C25.734,19.356,25.734,18.644,25.296,18.204z"/>
</svg>
