<?xml version="1.0" encoding="utf-8"?>
<!-- Generator: Adobe Illustrator 15.1.0, SVG Export Plug-In . SVG Version: 6.00 Build 0)  -->
<!DOCTYPE svg PUBLIC "-//W3C//DTD SVG 1.1//EN" "http://www.w3.org/Graphics/SVG/1.1/DTD/svg11.dtd">
<svg version="1.1" id="Layer_1" xmlns="http://www.w3.org/2000/svg" xmlns:xlink="http://www.w3.org/1999/xlink" x="0px" y="0px"
	 width="20px" height="21px" viewBox="0 0 20 21" enable-background="new 0 0 20 21" xml:space="preserve">
<g>
	<path d="M17.961,4.724c-1.904-2.171-8.5-2.032-13.232-1.078c0-0.021-0.001-0.041-0.001-0.061c0.059-2.227-1.869-3.105-2.896-3.259
		C1.283,0.245,0.775,0.62,0.694,1.167C0.612,1.713,0.989,2.222,1.535,2.304c0.125,0.019,1.22,0.211,1.193,1.279
		C2.75,4.461,2.659,5.522,2.563,6.645c-0.281,3.301-0.601,7.042,1.761,8.724c1.353,0.963,4.056,1.44,6.714,1.44
		c2.736,0,5.426-0.506,6.548-1.51C19.871,13.258,19.785,6.8,17.961,4.724z M16.254,13.81c-1.415,1.264-8.632,1.453-10.77-0.069
		c-1.432-1.02-1.164-4.157-0.928-6.925c0.032-0.378,0.063-0.749,0.091-1.11C9.898,4.526,15.43,4.872,16.459,6.043
		C17.714,7.472,17.578,12.625,16.254,13.81z"/>
	<path d="M14.966,8.186h-2.774c-0.553,0-1,0.448-1,1c0,0.553,0.447,1,1,1h2.774c0.552,0,1-0.447,1-1
		C15.966,8.633,15.518,8.186,14.966,8.186z"/>
	<path d="M5.297,17.596c-0.852,0-1.545,0.692-1.545,1.544c0,0.853,0.693,1.546,1.545,1.546c0.852,0,1.544-0.693,1.544-1.546
		C6.842,18.288,6.149,17.596,5.297,17.596z M5.297,19.596c-0.251,0-0.456-0.204-0.456-0.456c0-0.25,0.205-0.454,0.456-0.454
		s0.455,0.204,0.455,0.454C5.752,19.392,5.548,19.596,5.297,19.596z"/>
	<path d="M15.631,17.596c-0.851,0-1.543,0.692-1.543,1.544c0,0.853,0.692,1.546,1.543,1.546c0.853,0,1.546-0.693,1.546-1.546
		C17.177,18.288,16.483,17.596,15.631,17.596z M15.631,19.596c-0.25,0-0.454-0.204-0.454-0.456c0-0.25,0.204-0.454,0.454-0.454
		c0.252,0,0.457,0.204,0.457,0.454C16.088,19.392,15.883,19.596,15.631,19.596z"/>
</g>
</svg>
