<?xml version="1.0" encoding="utf-8"?>
<!-- Generator: Adobe Illustrator 15.1.0, SVG Export Plug-In . SVG Version: 6.00 Build 0)  -->
<!DOCTYPE svg PUBLIC "-//W3C//DTD SVG 1.1//EN" "http://www.w3.org/Graphics/SVG/1.1/DTD/svg11.dtd">
<svg version="1.1" id="Layer_1" xmlns="http://www.w3.org/2000/svg" xmlns:xlink="http://www.w3.org/1999/xlink" x="0px" y="0px"
	 width="14px" height="14px" viewBox="0 0 14 14" enable-background="new 0 0 14 14" xml:space="preserve">
<g>
	<path d="M7,1.175C3.788,1.175,1.175,3.788,1.175,7S3.788,12.825,7,12.825S12.825,10.212,12.825,7S10.212,1.175,7,1.175z M7,11.675
		c-2.578,0-4.675-2.097-4.675-4.675c0-2.578,2.097-4.675,4.675-4.675c2.578,0,4.675,2.097,4.675,4.675
		C11.675,9.578,9.578,11.675,7,11.675z"/>
	<path d="M9.909,7c0-0.019-0.009-0.034-0.011-0.052C9.894,6.891,9.887,6.834,9.865,6.78c-0.029-0.069-0.07-0.131-0.122-0.183
		C9.742,6.596,9.741,6.594,9.74,6.593L7.407,4.259c-0.225-0.225-0.589-0.225-0.813,0s-0.225,0.589,0,0.813l1.353,1.352h-3.28
		C4.349,6.425,4.091,6.683,4.091,7s0.258,0.575,0.575,0.575h3.279L6.593,8.928c-0.225,0.225-0.225,0.588,0,0.813
		C6.706,9.853,6.853,9.909,7,9.909S7.294,9.853,7.407,9.74L9.74,7.407C9.793,7.354,9.836,7.29,9.865,7.219
		c0.02-0.049,0.025-0.102,0.031-0.154C9.898,7.042,9.909,7.023,9.909,7z"/>
</g>
</svg>
