<?xml version="1.0" encoding="utf-8"?>
<!DOCTYPE svg PUBLIC "-//W3C//DTD SVG 1.1//EN" "http://www.w3.org/Graphics/SVG/1.1/DTD/svg11.dtd">
<svg version="1.1" id="Layer_1" xmlns="http://www.w3.org/2000/svg" xmlns:xlink="http://www.w3.org/1999/xlink" x="0px" y="0px"
	 width="23.098px" height="23.102px" viewBox="0 -0.551 23.098 23.102" enable-background="new 0 -0.551 23.098 23.102"
	 xml:space="preserve">
<path d="M17.922,0.366c-2.104-0.674-4.542-0.354-6.376,0.806c-1.893-1.194-4.232-1.5-6.381-0.805
	C0.59,1.841-0.827,6.834,0.446,10.807c0,0,0,0.001,0.001,0.001c2.027,6.311,10.344,10.897,10.698,11.088
	C11.271,21.967,11.41,22,11.55,22c0.141,0,0.28-0.035,0.405-0.105c0.355-0.195,8.733-4.849,10.696-11.087
	C23.923,6.835,22.501,1.843,17.922,0.366z M18.294,8.599c-0.023,0.002-0.046,0.003-0.068,0.003c-0.438,0-0.808-0.335-0.845-0.777
	c-0.073-0.927-0.693-1.71-1.577-1.996c-0.445-0.145-0.689-0.622-0.547-1.065c0.146-0.444,0.618-0.686,1.065-0.546
	c1.537,0.498,2.615,1.859,2.746,3.469C19.105,8.153,18.759,8.562,18.294,8.599z"/>
</svg>
