<?xml version="1.0" encoding="utf-8"?>
<!DOCTYPE svg PUBLIC "-//W3C//DTD SVG 1.1//EN" "http://www.w3.org/Graphics/SVG/1.1/DTD/svg11.dtd">
<svg version="1.1" id="Layer_1" xmlns="http://www.w3.org/2000/svg" xmlns:xlink="http://www.w3.org/1999/xlink" x="0px" y="0px"
	 width="23.098px" height="23.102px" viewBox="0 -0.551 23.098 23.102" enable-background="new 0 -0.551 23.098 23.102"
	 xml:space="preserve">
<path d="M11.546,1.172c1.834-1.16,4.271-1.48,6.376-0.806c4.579,1.477,6.001,6.469,4.729,10.441
	c-1.963,6.239-10.341,10.892-10.696,11.087C11.83,21.965,11.69,22,11.55,22c-0.14,0-0.278-0.033-0.404-0.104
	c-0.354-0.191-8.671-4.777-10.698-11.088c-0.001,0-0.001-0.001-0.001-0.001C-0.827,6.834,0.59,1.841,5.165,0.367
	C7.313-0.328,9.653-0.022,11.546,1.172z M5.684,1.978c-3.702,1.194-4.631,5.175-3.626,8.314c1.582,4.921,7.831,8.899,9.49,9.885
	c1.666-0.995,7.96-5.018,9.491-9.88c1.005-3.143,0.071-7.125-3.636-8.319c-1.795-0.576-3.891-0.226-5.336,0.894
	c-0.303,0.232-0.722,0.237-1.027,0.007C9.509,1.726,7.508,1.389,5.684,1.978z M16.322,4.218c1.537,0.498,2.615,1.859,2.746,3.469
	c0.037,0.466-0.31,0.875-0.774,0.912c-0.023,0.002-0.046,0.003-0.068,0.003c-0.438,0-0.808-0.335-0.845-0.777
	c-0.073-0.927-0.693-1.71-1.577-1.996c-0.445-0.145-0.689-0.622-0.547-1.065C15.402,4.32,15.875,4.078,16.322,4.218z"/>
</svg>
