<?xml version="1.0" encoding="utf-8"?>
<!-- Generator: Adobe Illustrator 15.1.0, SVG Export Plug-In . SVG Version: 6.00 Build 0)  -->
<!DOCTYPE svg PUBLIC "-//W3C//DTD SVG 1.1//EN" "http://www.w3.org/Graphics/SVG/1.1/DTD/svg11.dtd">
<svg version="1.1" id="Layer_1" xmlns="http://www.w3.org/2000/svg" xmlns:xlink="http://www.w3.org/1999/xlink" x="0px" y="0px"
	 width="20px" height="20.012px" viewBox="0 -3.006 20 20.012" enable-background="new 0 -3.006 20 20.012" xml:space="preserve">
<path d="M0.769,0.199c-0.204,0-0.399,0.08-0.543,0.223C0.081,0.564,0,0.758,0,0.959c0,0.202,0.081,0.395,0.225,0.538
	c0.145,0.143,0.34,0.223,0.543,0.223h18.455c0.203,0,0.399-0.08,0.543-0.223c0.145-0.143,0.226-0.336,0.226-0.538
	c0-0.201-0.081-0.395-0.226-0.537c-0.144-0.143-0.34-0.223-0.543-0.223H0.769z"/>
<path d="M0,7.039c0-0.201,0.081-0.395,0.225-0.537c0.145-0.143,0.34-0.223,0.543-0.223h18.455c0.203,0,0.399,0.08,0.543,0.223
	c0.145,0.143,0.226,0.336,0.226,0.537c0,0.202-0.081,0.395-0.226,0.537c-0.144,0.143-0.34,0.223-0.543,0.223H0.769
	c-0.204,0-0.399-0.08-0.543-0.223C0.081,7.434,0,7.241,0,7.039L0,7.039z"/>
<path d="M0,13.119c0-0.201,0.081-0.395,0.225-0.537c0.145-0.143,0.34-0.223,0.543-0.223h18.455c0.203,0,0.399,0.08,0.543,0.223
	c0.145,0.143,0.226,0.336,0.226,0.537s-0.081,0.395-0.226,0.537c-0.144,0.143-0.34,0.223-0.543,0.223H0.769
	c-0.204,0-0.399-0.08-0.543-0.223C0.081,13.514,0,13.32,0,13.119L0,13.119z"/>
</svg>
