<?xml version="1.0" encoding="utf-8"?>
<!-- Generator: Adobe Illustrator 15.1.0, SVG Export Plug-In . SVG Version: 6.00 Build 0)  -->
<!DOCTYPE svg PUBLIC "-//W3C//DTD SVG 1.1//EN" "http://www.w3.org/Graphics/SVG/1.1/DTD/svg11.dtd">
<svg version="1.1" id="Layer_1" xmlns="http://www.w3.org/2000/svg" xmlns:xlink="http://www.w3.org/1999/xlink" x="0px" y="0px"
	 width="24px" height="24px" viewBox="0 0 24 24" enable-background="new 0 0 24 24" xml:space="preserve">
<circle cx="12" cy="12" r="2.25"/>
<path d="M16,4H8C5.791,4,4,5.791,4,8v8c0,2.209,1.791,4,4,4h8c2.209,0,4-1.791,4-4V8C20,5.791,18.209,4,16,4z M12,15.75
	c-2.068,0-3.75-1.683-3.75-3.75c0-2.068,1.682-3.75,3.75-3.75c2.067,0,3.75,1.682,3.75,3.75C15.75,14.067,14.067,15.75,12,15.75z
	 M16.53,8.25c-0.431,0-0.78-0.35-0.78-0.782c0-0.431,0.35-0.781,0.78-0.781c0.432,0,0.782,0.35,0.782,0.781
	C17.313,7.9,16.962,8.25,16.53,8.25z"/>
</svg>
