<?xml version="1.0" encoding="utf-8"?>
<!-- Generator: Adobe Illustrator 15.1.0, SVG Export Plug-In . SVG Version: 6.00 Build 0)  -->
<!DOCTYPE svg PUBLIC "-//W3C//DTD SVG 1.1//EN" "http://www.w3.org/Graphics/SVG/1.1/DTD/svg11.dtd">
<svg version="1.1" id="Layer_1" xmlns="http://www.w3.org/2000/svg" xmlns:xlink="http://www.w3.org/1999/xlink" x="0px" y="0px"
	 width="24px" height="24px" viewBox="0 0 24 24" enable-background="new 0 0 24 24" xml:space="preserve">
<g>
	<path fill="#323232" d="M11,7c-0.528,0-1.043,0.103-1.53,0.304C8.982,7.506,8.545,7.798,8.172,8.171
		C7.798,8.545,7.506,8.982,7.305,9.469C7.103,9.957,7,10.472,7,11c0,0.552,0.448,1,1,1s1-0.448,1-1c0-0.264,0.051-0.521,0.153-0.766
		c0.1-0.243,0.246-0.461,0.434-0.648c0.187-0.187,0.404-0.333,0.649-0.433C10.479,9.051,10.736,9,11,9c0.552,0,1-0.448,1-1
		S11.552,7,11,7z"/>
	<path fill="#323232" d="M20.707,19.293l-3.396-3.396C18.365,14.543,19,12.846,19,11c0-4.411-3.589-8-8-8s-8,3.589-8,8s3.589,8,8,8
		c1.846,0,3.543-0.635,4.897-1.688l3.396,3.396C19.488,20.902,19.744,21,20,21s0.512-0.098,0.707-0.293
		C21.098,20.316,21.098,19.684,20.707,19.293z M11,17c-3.309,0-6-2.691-6-6s2.691-6,6-6s6,2.691,6,6S14.309,17,11,17z"/>
</g>
</svg>
