<?xml version="1.0" encoding="utf-8"?>
<!-- Generator: Adobe Illustrator 15.1.0, SVG Export Plug-In . SVG Version: 6.00 Build 0)  -->
<!DOCTYPE svg PUBLIC "-//W3C//DTD SVG 1.1//EN" "http://www.w3.org/Graphics/SVG/1.1/DTD/svg11.dtd">
<svg version="1.1" id="Layer_1" xmlns="http://www.w3.org/2000/svg" xmlns:xlink="http://www.w3.org/1999/xlink" x="0px" y="0px"
	 width="20px" height="20px" viewBox="0 0 20 20" enable-background="new 0 0 20 20" xml:space="preserve">
<path d="M16.666,6.041h-0.638c0.277-0.432,0.431-0.933,0.431-1.458c0-0.722-0.282-1.402-0.794-1.915
	c-0.524-0.524-1.184-0.788-1.959-0.793c-0.974,0-1.899,0.458-2.682,1.327C10.63,3.64,10.285,4.171,10,4.774
	C9.715,4.171,9.37,3.64,8.975,3.202C8.193,2.333,7.267,1.875,6.304,1.875c-0.718,0.002-1.445,0.27-1.969,0.793
	C3.823,3.181,3.542,3.861,3.542,4.583c0,0.525,0.153,1.026,0.43,1.458H3.333c-0.804,0-1.458,0.654-1.458,1.458v1.667
	c0,0.804,0.654,1.458,1.458,1.458h0.208v5.21c0,0.603,0.245,1.193,0.671,1.62c0.433,0.433,1.008,0.671,1.621,0.671h8.333
	c0.613,0,1.188-0.238,1.622-0.671c0.426-0.427,0.671-1.018,0.671-1.62v-5.21h0.207c0.805,0,1.459-0.654,1.459-1.458V7.5
	C18.125,6.695,17.471,6.041,16.666,6.041z M11.954,4.038c0.537-0.597,1.144-0.913,1.764-0.913c0.396-0.004,0.78,0.144,1.063,0.427
	c0.272,0.272,0.429,0.648,0.429,1.031c0,0.383-0.156,0.759-0.429,1.031c-0.273,0.273-0.636,0.423-1.021,0.426h-2.924
	C11.114,5.235,11.493,4.55,11.954,4.038z M5.219,5.615C4.943,5.339,4.792,4.973,4.792,4.583c0-0.389,0.152-0.755,0.427-1.031
	C5.494,3.277,5.86,3.125,6.261,3.125c0.592-0.024,1.238,0.304,1.785,0.912c0.461,0.513,0.84,1.197,1.118,2.003H6.24
	C5.854,6.038,5.492,5.888,5.219,5.615z M3.125,9.166V7.5c0-0.115,0.094-0.208,0.208-0.208H6.24c0.003,0,0.006,0.001,0.01,0.001
	c0.002,0,0.003-0.001,0.005-0.001h3.12v2.083H3.333C3.219,9.375,3.125,9.281,3.125,9.166z M5.097,16.569
	c-0.194-0.193-0.305-0.462-0.305-0.735v-5.21h4.583v6.251H5.833C5.555,16.875,5.293,16.767,5.097,16.569z M15.209,15.834
	c0,0.273-0.111,0.542-0.306,0.735c-0.196,0.197-0.458,0.306-0.737,0.306h-3.541v-6.251h4.584V15.834z M16.875,9.166
	c0,0.115-0.094,0.208-0.209,0.208h-6.041V7.291h3.12c0.002,0,0.003,0.001,0.005,0.001c0.004,0,0.007-0.001,0.01-0.001h2.906
	c0.115,0,0.209,0.094,0.209,0.208V9.166z"/>
</svg>
