<?xml version="1.0" encoding="utf-8"?>
<!-- Generator: Adobe Illustrator 15.1.0, SVG Export Plug-In . SVG Version: 6.00 Build 0)  -->
<!DOCTYPE svg PUBLIC "-//W3C//DTD SVG 1.1//EN" "http://www.w3.org/Graphics/SVG/1.1/DTD/svg11.dtd">
<svg version="1.1" id="Layer_1" xmlns="http://www.w3.org/2000/svg" xmlns:xlink="http://www.w3.org/1999/xlink" x="0px" y="0px"
	 width="24px" height="24px" viewBox="0 0 24 24" enable-background="new 0 0 24 24" xml:space="preserve">
<path d="M22.691,9.023c-0.088-0.272-0.322-0.47-0.605-0.511l-6.51-0.943L12.665,1.67c-0.126-0.256-0.387-0.418-0.672-0.418
	S11.446,1.414,11.32,1.67L8.409,7.569L1.899,8.513C1.617,8.554,1.382,8.751,1.293,9.023c-0.088,0.271-0.015,0.57,0.19,0.769
	l4.717,4.591l-1.112,6.484c-0.048,0.281,0.067,0.565,0.298,0.733c0.131,0.096,0.286,0.144,0.441,0.144
	c0.12,0,0.239-0.028,0.349-0.086L12,18.598l5.809,3.061c0.11,0.059,0.229,0.087,0.35,0.087c0.006,0,0.014,0,0.02,0
	c0.415,0,0.75-0.336,0.75-0.75c0-0.104-0.021-0.203-0.059-0.293l-1.085-6.318l4.718-4.591C22.706,9.593,22.78,9.295,22.691,9.023z"
	/>
</svg>
