<?xml version="1.0" encoding="utf-8"?>
<!-- Generator: Adobe Illustrator 15.1.0, SVG Export Plug-In . SVG Version: 6.00 Build 0)  -->
<!DOCTYPE svg PUBLIC "-//W3C//DTD SVG 1.1//EN" "http://www.w3.org/Graphics/SVG/1.1/DTD/svg11.dtd">
<svg version="1.1" id="Layer_1" xmlns="http://www.w3.org/2000/svg" xmlns:xlink="http://www.w3.org/1999/xlink" x="0px" y="0px"
	 width="24px" height="24px" viewBox="0 0 24 24" enable-background="new 0 0 24 24" xml:space="preserve">
<path d="M20.812,5.347c-0.881,0.432-1.745,0.607-2.644,0.873c-0.987-1.115-2.452-1.176-3.859-0.649
	C12.902,6.098,11.979,7.387,12,8.863v0.881C9.141,9.817,6.594,8.515,4.951,6.22c0,0-3.685,6.551,3.525,9.692
	c-1.65,1.1-3.294,1.84-5.287,1.763c2.915,1.588,6.091,2.135,8.842,1.338c3.153-0.917,5.747-3.282,6.742-6.823
	c0.296-1.077,0.443-2.188,0.437-3.307C19.207,8.663,20.54,6.44,20.812,5.347L20.812,5.347z"/>
</svg>
