<svg xmlns="http://www.w3.org/2000/svg"><symbol id="svg-arrow-down" viewBox="0.5 0 36 36"><title>arrow-down</title><path d="M25.296 18.204a1.129 1.129 0 0 0-1.592 0l-4.079 4.079V11a1.125 1.125 0 0 0-2.25 0v11.283l-4.08-4.079a1.127 1.127 0 0 0-1.591 0 1.127 1.127 0 0 0 0 1.592l6 6c.22.22.507.329.795.329s.576-.109.796-.329l6-6c.439-.44.439-1.152.001-1.592z"/></symbol><symbol id="svg-cart" viewBox="0 0 20 21"><title>cart</title><path d="M17.961 4.724c-1.904-2.171-8.5-2.032-13.232-1.078l-.001-.061C4.787 1.358 2.859.48 1.832.326a.999.999 0 1 0-.297 1.978c.125.019 1.22.211 1.193 1.279.022.878-.069 1.939-.165 3.062-.281 3.301-.601 7.042 1.761 8.724 1.353.963 4.056 1.44 6.714 1.44 2.736 0 5.426-.506 6.548-1.51 2.285-2.041 2.199-8.499.375-10.575zm-1.707 9.086c-1.415 1.264-8.632 1.453-10.77-.069-1.432-1.02-1.164-4.157-.928-6.925.032-.378.063-.749.091-1.11 5.251-1.18 10.783-.834 11.812.337 1.255 1.429 1.119 6.582-.205 7.767z"/><path d="M14.966 8.186h-2.774a1 1 0 1 0 0 2h2.774a1 1 0 1 0 0-2zm-9.669 9.41a1.546 1.546 0 0 0 0 3.09 1.546 1.546 0 0 0 0-3.09zm0 2a.456.456 0 1 1 0-.908.456.456 0 0 1 0 .908zm10.334-2a1.545 1.545 0 1 0 .003 3.09 1.545 1.545 0 0 0-.003-3.09zm0 2a.455.455 0 1 1 .003-.91.455.455 0 0 1-.003.91z"/></symbol><symbol id="svg-chevron-right" viewBox="-0.504 0 17.008 17"><title>chevron-right</title><path d="M6.417 13.5a.999.999 0 0 1-.707-1.707L9.003 8.5 5.71 5.207a.999.999 0 1 1 1.414-1.414l4 4a.999.999 0 0 1 0 1.414l-4 4a.997.997 0 0 1-.707.293z"/></symbol><symbol id="svg-circular-arrow-right" viewBox="0 0 14 14"><title>circular-arrow-right</title><path d="M7 1.175C3.788 1.175 1.175 3.788 1.175 7S3.788 12.825 7 12.825 12.825 10.212 12.825 7 10.212 1.175 7 1.175zm0 10.5A4.68 4.68 0 0 1 2.325 7 4.68 4.68 0 0 1 7 2.325 4.68 4.68 0 0 1 11.675 7 4.68 4.68 0 0 1 7 11.675z"/><path d="M9.909 7c0-.019-.009-.034-.011-.052a.54.54 0 0 0-.033-.168.57.57 0 0 0-.122-.183l-.003-.004-2.333-2.334a.574.574 0 1 0-.813.813l1.353 1.352h-3.28a.576.576 0 0 0-.001 1.151h3.279L6.593 8.928a.574.574 0 1 0 .814.812L9.74 7.407a.573.573 0 0 0 .125-.188c.02-.049.025-.102.031-.154.002-.023.013-.042.013-.065z"/></symbol><symbol id="svg-facebook" viewBox="0 0 24 24"><title>facebook</title><path d="M7 10v4h3v7h4v-7h3l1-4h-4V8a1 1 0 0 1 1-1h3V3h-3a5 5 0 0 0-5 5v2H7Z"/></symbol><symbol id="svg-favorite-fill" viewBox="0 -0.551 23.098 23.102"><title>favorite-fill</title><path d="M17.922.366c-2.104-.674-4.542-.354-6.376.806A7.59 7.59 0 0 0 5.165.367C.59 1.841-.827 6.834.446 10.807l.001.001c2.027 6.311 10.344 10.897 10.698 11.088a.82.82 0 0 0 .405.104c.141 0 .28-.035.405-.105.355-.195 8.733-4.849 10.696-11.087 1.272-3.973-.15-8.965-4.729-10.442zm.372 8.233a.848.848 0 0 1-.913-.774 2.28 2.28 0 0 0-1.577-1.996.85.85 0 0 1-.547-1.065.85.85 0 0 1 1.065-.546 3.976 3.976 0 0 1 2.746 3.469.846.846 0 0 1-.774.912z"/></symbol><symbol id="svg-favorite" viewBox="0 -0.551 23.098 23.102"><title>favorite</title><path d="M11.546 1.172c1.834-1.16 4.271-1.48 6.376-.806 4.579 1.477 6.001 6.469 4.729 10.441-1.963 6.239-10.341 10.892-10.696 11.087a.82.82 0 0 1-.405.106.816.816 0 0 1-.404-.104c-.354-.191-8.671-4.777-10.698-11.088l-.001-.001C-.827 6.834.59 1.841 5.165.367a7.591 7.591 0 0 1 6.381.805zm-5.862.806c-3.702 1.194-4.631 5.175-3.626 8.314 1.582 4.921 7.831 8.899 9.49 9.885 1.666-.995 7.96-5.018 9.491-9.88 1.005-3.143.071-7.125-3.636-8.319-1.795-.576-3.891-.226-5.336.894a.848.848 0 0 1-1.027.007 5.898 5.898 0 0 0-5.356-.901zm10.638 2.24a3.976 3.976 0 0 1 2.746 3.469.847.847 0 0 1-1.687.138 2.28 2.28 0 0 0-1.577-1.996.85.85 0 0 1-.547-1.065.85.85 0 0 1 1.065-.546z"/></symbol><symbol id="svg-globe" viewBox="0 0 24 24"><title>globe</title><path d="M21.875 12c0-5.199-4.041-9.462-9.146-9.838a.877.877 0 0 0-.385-.02c-.115-.003-.228-.017-.344-.017s-.229.014-.345.018a.862.862 0 0 0-.385.02C6.166 2.538 2.125 6.801 2.125 12c0 5.234 4.097 9.519 9.251 9.844.043.006.082.031.125.031.045 0 .089-.012.134-.019.122.005.242.019.365.019s.243-.014.365-.019c.044.007.089.019.134.019.044 0 .082-.025.125-.031 5.154-.325 9.251-4.61 9.251-9.844zM9.941 14.125c-.093-.702-.144-1.411-.144-2.125s.051-1.423.144-2.125h4.117c.094.702.145 1.411.145 2.125s-.051 1.423-.145 2.125H9.941zm3.78 1.75A16.078 16.078 0 0 1 12 20.117a16.112 16.112 0 0 1-1.721-4.242h3.442zM3.875 12c0-.736.107-1.446.292-2.125h4.017A17.7 17.7 0 0 0 8.047 12c0 .714.051 1.422.135 2.125H4.167A8.063 8.063 0 0 1 3.875 12zm6.404-3.875c.367-1.483.944-2.91 1.721-4.242a16.112 16.112 0 0 1 1.721 4.242h-3.442zm5.538 1.75h4.017c.184.679.291 1.389.291 2.125s-.107 1.446-.291 2.125h-4.017c.084-.703.136-1.411.136-2.125 0-.713-.052-1.422-.136-2.125zm3.323-1.75h-3.616a17.8 17.8 0 0 0-1.39-3.956 8.152 8.152 0 0 1 5.006 3.956zM9.866 4.169a17.798 17.798 0 0 0-1.389 3.956H4.86a8.155 8.155 0 0 1 5.006-3.956zM4.86 15.875h3.616a17.848 17.848 0 0 0 1.389 3.956 8.156 8.156 0 0 1-5.005-3.956zm9.274 3.956a17.851 17.851 0 0 0 1.39-3.956h3.616a8.152 8.152 0 0 1-5.006 3.956z"/></symbol><symbol id="svg-instagram" viewBox="0 0 24 24"><title>instagram</title><circle cx="12" cy="12" r="2.25"/><path d="M16 4H8a4 4 0 0 0-4 4v8a4 4 0 0 0 4 4h8a4 4 0 0 0 4-4V8a4 4 0 0 0-4-4zm-4 11.75A3.755 3.755 0 0 1 8.25 12 3.754 3.754 0 0 1 12 8.25 3.755 3.755 0 0 1 15.75 12 3.755 3.755 0 0 1 12 15.75zm4.53-7.5a.78.78 0 1 1 .002-1.562.78.78 0 0 1-.002 1.562z"/></symbol><symbol id="svg-magnifying-glass" viewBox="0 0 24 24"><title>magnifying-glass</title><g fill="#323232"><path d="M11 7a3.992 3.992 0 0 0-2.828 1.171 3.97 3.97 0 0 0-.867 1.298A3.983 3.983 0 0 0 7 11a1 1 0 0 0 2 0c0-.264.051-.521.153-.766.1-.243.246-.461.434-.648a1.96 1.96 0 0 1 .649-.433c.243-.102.5-.153.764-.153a1 1 0 0 0 0-2z"/><path d="m20.707 19.293-3.396-3.396A7.947 7.947 0 0 0 19 11c0-4.411-3.589-8-8-8s-8 3.589-8 8 3.589 8 8 8a7.952 7.952 0 0 0 4.897-1.688l3.396 3.396a1 1 0 0 0 1.414-1.415zM11 17c-3.309 0-6-2.691-6-6s2.691-6 6-6 6 2.691 6 6-2.691 6-6 6z"/></g></symbol><symbol id="svg-present" viewBox="0 0 20 20"><title>present</title><path d="M16.666 6.041h-.638a2.693 2.693 0 0 0-.363-3.373c-.524-.524-1.184-.788-1.959-.793-.974 0-1.899.458-2.682 1.327A6.496 6.496 0 0 0 10 4.774a6.469 6.469 0 0 0-1.025-1.572c-.782-.869-1.708-1.327-2.671-1.327-.718.002-1.445.27-1.969.793a2.693 2.693 0 0 0-.363 3.373h-.639a1.46 1.46 0 0 0-1.458 1.458v1.667a1.46 1.46 0 0 0 1.458 1.458h.208v5.21c0 .603.245 1.193.671 1.62a2.276 2.276 0 0 0 1.621.671h8.333a2.28 2.28 0 0 0 1.622-.671 2.312 2.312 0 0 0 .671-1.62v-5.21h.207a1.46 1.46 0 0 0 1.459-1.458V7.5a1.46 1.46 0 0 0-1.459-1.459zm-4.712-2.003c.537-.597 1.144-.913 1.764-.913.396-.004.78.144 1.063.427.272.272.429.648.429 1.031 0 .383-.156.759-.429 1.031a1.45 1.45 0 0 1-1.021.426h-2.924c.278-.805.657-1.49 1.118-2.002zM5.219 5.615a1.448 1.448 0 0 1-.427-1.032 1.455 1.455 0 0 1 1.469-1.458c.592-.024 1.238.304 1.785.912.461.513.84 1.197 1.118 2.003H6.24a1.444 1.444 0 0 1-1.021-.425zM3.125 9.166V7.5c0-.115.094-.208.208-.208H6.24l.01.001.005-.001h3.12v2.083H3.333a.21.21 0 0 1-.208-.209zm1.972 7.403a1.045 1.045 0 0 1-.305-.735v-5.21h4.583v6.251H5.833c-.278 0-.54-.108-.736-.306zm10.112-.735a1.042 1.042 0 0 1-1.043 1.041h-3.541v-6.251h4.584v5.21zm1.666-6.668a.209.209 0 0 1-.209.208h-6.041V7.291h3.12l.005.001.01-.001h2.906a.21.21 0 0 1 .209.208v1.667z"/></symbol><symbol id="svg-star" viewBox="0 0 24 24"><title>star</title><path d="M22.691 9.023a.748.748 0 0 0-.605-.511l-6.51-.943-2.911-5.899a.75.75 0 0 0-1.345 0L8.409 7.569l-6.51.944a.751.751 0 0 0-.416 1.279L6.2 14.383l-1.112 6.484a.75.75 0 0 0 1.088.791L12 18.598l5.809 3.061c.11.059.229.087.35.087h.02a.75.75 0 0 0 .691-1.043l-1.085-6.318 4.718-4.591a.755.755 0 0 0 .188-.771z"/></symbol><symbol id="svg-twitter" viewBox="0 0 24 24"><title>twitter</title><path d="M20.812 5.347c-.881.432-1.745.607-2.644.873-.987-1.115-2.452-1.176-3.859-.649-1.407.527-2.33 1.816-2.309 3.292v.881c-2.859.073-5.406-1.229-7.049-3.524 0 0-3.685 6.551 3.525 9.692-1.65 1.1-3.294 1.84-5.287 1.763 2.915 1.588 6.091 2.135 8.842 1.338 3.153-.917 5.747-3.282 6.742-6.823.296-1.077.443-2.188.437-3.307-.003-.22 1.33-2.443 1.602-3.536z"/></symbol><symbol id="svg-youtube" viewBox="0 0 24 24"><title>youtube</title><path d="M17 5H7a4 4 0 0 0-4 4v6a4 4 0 0 0 4 4h10a4 4 0 0 0 4-4V9a4 4 0 0 0-4-4zm-7 10V9l5 3-5 3z"/></symbol></svg>