<svg xmlns="http://www.w3.org/2000/svg"><symbol id="svg-arrow-down" viewBox="0.5 0 36 36"><title>arrow-down</title><path d="M25.296 18.204a1.129 1.129 0 0 0-1.592 0l-4.079 4.079V11a1.125 1.125 0 0 0-2.25 0v11.283l-4.08-4.079a1.127 1.127 0 0 0-1.591 0 1.127 1.127 0 0 0 0 1.592l6 6c.22.22.507.329.795.329s.576-.109.796-.329l6-6c.439-.44.439-1.152.001-1.592z"/></symbol><symbol id="svg-cart" viewBox="0 0 20 21"><title>cart</title><path d="M17.961 4.724c-1.904-2.171-8.5-2.032-13.232-1.078l-.001-.061C4.787 1.358 2.859.48 1.832.326a.999.999 0 1 0-.297 1.978c.125.019 1.22.211 1.193 1.279.022.878-.069 1.939-.165 3.062-.281 3.301-.601 7.042 1.761 8.724 1.353.963 4.056 1.44 6.714 1.44 2.736 0 5.426-.506 6.548-1.51 2.285-2.041 2.199-8.499.375-10.575zm-1.707 9.086c-1.415 1.264-8.632 1.453-10.77-.069-1.432-1.02-1.164-4.157-.928-6.925.032-.378.063-.749.091-1.11 5.251-1.18 10.783-.834 11.812.337 1.255 1.429 1.119 6.582-.205 7.767z"/><path d="M14.966 8.186h-2.774a1 1 0 1 0 0 2h2.774a1 1 0 1 0 0-2zm-9.669 9.41a1.546 1.546 0 0 0 0 3.09 1.546 1.546 0 0 0 0-3.09zm0 2a.456.456 0 1 1 0-.908.456.456 0 0 1 0 .908zm10.334-2a1.545 1.545 0 1 0 .003 3.09 1.545 1.545 0 0 0-.003-3.09zm0 2a.455.455 0 1 1 .003-.91.455.455 0 0 1-.003.91z"/></symbol><symbol id="svg-chevron-right" viewBox="-0.504 0 17.008 17"><title>chevron-right</title><path d="M6.417 13.5a.999.999 0 0 1-.707-1.707L9.003 8.5 5.71 5.207a.999.999 0 1 1 1.414-1.414l4 4a.999.999 0 0 1 0 1.414l-4 4a.997.997 0 0 1-.707.293z"/></symbol><symbol id="svg-facebook" viewBox="0 0 24 24"><title>facebook</title><path d="M7 10v4h3v7h4v-7h3l1-4h-4V8a1 1 0 0 1 1-1h3V3h-3a5 5 0 0 0-5 5v2H7Z"/></symbol><symbol id="svg-favorite-fill" viewBox="0 -0.551 23.098 23.102"><title>favorite-fill</title><path d="M17.922.366c-2.104-.674-4.542-.354-6.376.806A7.59 7.59 0 0 0 5.165.367C.59 1.841-.827 6.834.446 10.807l.001.001c2.027 6.311 10.344 10.897 10.698 11.088a.82.82 0 0 0 .405.104c.141 0 .28-.035.405-.105.355-.195 8.733-4.849 10.696-11.087 1.272-3.973-.15-8.965-4.729-10.442zm.372 8.233a.848.848 0 0 1-.913-.774 2.28 2.28 0 0 0-1.577-1.996.85.85 0 0 1-.547-1.065.85.85 0 0 1 1.065-.546 3.976 3.976 0 0 1 2.746 3.469.846.846 0 0 1-.774.912z"/></symbol><symbol id="svg-favorite" viewBox="0 -0.551 23.098 23.102"><title>favorite</title><path d="M11.546 1.172c1.834-1.16 4.271-1.48 6.376-.806 4.579 1.477 6.001 6.469 4.729 10.441-1.963 6.239-10.341 10.892-10.696 11.087a.82.82 0 0 1-.405.106.816.816 0 0 1-.404-.104c-.354-.191-8.671-4.777-10.698-11.088l-.001-.001C-.827 6.834.59 1.841 5.165.367a7.591 7.591 0 0 1 6.381.805zm-5.862.806c-3.702 1.194-4.631 5.175-3.626 8.314 1.582 4.921 7.831 8.899 9.49 9.885 1.666-.995 7.96-5.018 9.491-9.88 1.005-3.143.071-7.125-3.636-8.319-1.795-.576-3.891-.226-5.336.894a.848.848 0 0 1-1.027.007 5.898 5.898 0 0 0-5.356-.901zm10.638 2.24a3.976 3.976 0 0 1 2.746 3.469.847.847 0 0 1-1.687.138 2.28 2.28 0 0 0-1.577-1.996.85.85 0 0 1-.547-1.065.85.85 0 0 1 1.065-.546z"/></symbol><symbol id="svg-instagram" viewBox="0 0 24 24"><title>instagram</title><circle cx="12" cy="12" r="2.25"/><path d="M16 4H8a4 4 0 0 0-4 4v8a4 4 0 0 0 4 4h8a4 4 0 0 0 4-4V8a4 4 0 0 0-4-4zm-4 11.75A3.755 3.755 0 0 1 8.25 12 3.754 3.754 0 0 1 12 8.25 3.755 3.755 0 0 1 15.75 12 3.755 3.755 0 0 1 12 15.75zm4.53-7.5a.78.78 0 1 1 .002-1.562.78.78 0 0 1-.002 1.562z"/></symbol><symbol id="svg-star" viewBox="0 0 24 24"><title>star</title><path d="M22.691 9.023a.748.748 0 0 0-.605-.511l-6.51-.943-2.911-5.899a.75.75 0 0 0-1.345 0L8.409 7.569l-6.51.944a.751.751 0 0 0-.416 1.279L6.2 14.383l-1.112 6.484a.75.75 0 0 0 1.088.791L12 18.598l5.809 3.061c.11.059.229.087.35.087h.02a.75.75 0 0 0 .691-1.043l-1.085-6.318 4.718-4.591a.755.755 0 0 0 .188-.771z"/></symbol><symbol id="svg-twitter" viewBox="0 0 24 24"><title>twitter</title><path d="M20.812 5.347c-.881.432-1.745.607-2.644.873-.987-1.115-2.452-1.176-3.859-.649-1.407.527-2.33 1.816-2.309 3.292v.881c-2.859.073-5.406-1.229-7.049-3.524 0 0-3.685 6.551 3.525 9.692-1.65 1.1-3.294 1.84-5.287 1.763 2.915 1.588 6.091 2.135 8.842 1.338 3.153-.917 5.747-3.282 6.742-6.823.296-1.077.443-2.188.437-3.307-.003-.22 1.33-2.443 1.602-3.536z"/></symbol><symbol id="svg-youtube" viewBox="0 0 24 24"><title>youtube</title><path d="M17 5H7a4 4 0 0 0-4 4v6a4 4 0 0 0 4 4h10a4 4 0 0 0 4-4V9a4 4 0 0 0-4-4zm-7 10V9l5 3-5 3z"/></symbol></svg>